# AST/ASF file generated using VICON BodyLanguage
# -----------------------------------------------
:version 1.10
:name VICON
:units
  mass 1.0
  length 0.45
  angle deg
:documentation
   .ast/.asf automatically generated from VICON data using
   VICON BodyBuilder and BodyLanguage model FoxedUp or BRILLIANT.MOD
:root
   order TX TY TZ RX RY RZ
   axis XYZ
   position 0 0 0  
   orientation 0 0 0 
:bonedata
  begin
     id 1 
     name lhipjoint
     direction 0.606768 -0.715223 0.346827 
     length 2.41543 
     axis 0 0 0  XYZ
  end
  begin
     id 2 
     name lfemur
     direction 0.34202 -0.939693 0  
     length 7.2778  
     axis 0 0 20  XYZ
    dof rx ry rz
    limits (-160.0 20.0)
           (-70.0 70.0)
           (-60.0 70.0)
  end
  begin
     id 3 
     name ltibia
     direction 0.34202 -0.939693 0   
     length 7.61811   
     axis 0 0 20   XYZ
    dof rx
    limits (-10.0 170.0)
  end
  begin
     id 4 
     name lfoot
     direction 0.0823924 -0.226371 0.97055   
     length 2.33618   
     axis -90 7.62852e-016 20   XYZ
    dof rx rz
    limits (-45.0 90.0)
           (-70.0 20.0)
  end
  begin
     id 5 
     name ltoes
     direction 1.53554e-011 -4.21934e-011 1   
     length 1.17015   
     axis -90 7.62852e-016 20   XYZ
    dof rx
    limits (-90.0 20.0)
  end
  begin
     id 6 
     name rhipjoint
     direction -0.6077 -0.714582 0.346516   
     length 2.4176  
     axis 0 0 0  XYZ 
  end
  begin
     id 7 
     name rfemur
     direction -0.34202 -0.939693 0   
     length 7.28127   
     axis 0 0 -20   XYZ
    dof rx ry rz
    limits (-160.0 20.0)
           (-70.0 70.0)
           (-70.0 60.0)
  end
  begin
     id 8 
     name rtibia
     direction -0.34202 -0.939693 0   
     length 7.77648   
     axis 0 0 -20   XYZ
    dof rx
    limits (-10.0 170.0)
 end
 begin
     id 9 
     name rfoot
     direction -0.0809463 -0.222398 0.97159   
     length 2.37533  
     axis -90 -7.62852e-016 -20   XYZ
    dof rx rz
    limits (-45.0 90.0)
           (-20.0 70.0)
  end
  begin
     id 10 
     name rtoes
     direction -1.53568e-011 -4.21714e-011 1   
     length 1.18972   
     axis -90 -7.62852e-016 -20   XYZ
    dof rx
    limits (-90.0 20.0)
  end
  begin
     id 11 
     name lowerback
     direction 0.010968 0.991932 -0.126297   
     length 2.21698   
     axis 0 0 0   XYZ
    dof rx ry rz
    limits (-20.0 45.0)
           (-30.0 30.0)
           (-30.0 30.0)
  end
  begin
     id 12 
     name upperback
     direction 0.0167007 0.997503 -0.0686276   
     length 2.22371   
     axis 0 0 0   XYZ
    dof rx ry rz
    limits (-20.0 45.0)
           (-30.0 30.0)
           (-30.0 30.0)
  end
  begin
     id 13 
     name thorax
     direction 0.0111721 0.999885 -0.0102878   
     length 2.25242   
     axis 0 0 0   XYZ
    dof rx ry rz
    limits (-20.0 45.0)
           (-30.0 30.0)
           (-30.0 30.0)
  end
  begin
     id 14 
     name lowerneck
     direction -0.0120265 0.990428 0.137508   
     length 1.57674   
     axis 0 0 0   XYZ
    dof rx ry rz
    limits (-20.0 45.0)
           (-30.0 30.0)
           (-30.0 30.0)
  end
  begin
     id 15 
     name upperneck
     direction 0.0175669 0.998907 0.0433089   
     length 1.5618   
     axis 0 0 0   XYZ
    dof rx ry rz
    limits (-20.0 45.0)
           (-30.0 30.0)
           (-30.0 30.0)
  end
  begin
     id 16
     name head
     direction 0.00754609 0.99997 0.00185367  
     length 1.60579  
     axis 0 0 0   XYZ
    dof rx ry rz
    limits (-20.0 45.0)
           (-30.0 30.0)
           (-30.0 30.0)
  end
  begin
     id 17 
     name lclavicle
     direction 0.885866 0.429166 -0.176231  
     length 3.44967  
     axis 0 0 0   XYZ
    dof ry rz
    limits (-20.0 10.0)
           (0.0 20.0)
  end
  begin
     id 18 
     name lhumerus
     direction 1 -4.48973e-011 -1.90255e-027   
     length 5.20607   
     axis 180 -30 -90   XYZ
    dof rx ry rz
    limits (-60.0 90.0)
           (-90.0 90.0)
           (-90.0 90.0)
  end
  begin
     id 19
     name lradius
     direction 1 -4.48956e-011 9.87925e-027   
     length 3.39961   
     axis 180 -30 -90   XYZ
    dof rx
    limits (-10.0 170.0)
  end
  begin
     id 20
     name lwrist
     direction 1 -4.48985e-011 1.73247e-026   
     length 1.6998   
     axis -9.60847e-015 90 90   XYZ
    dof ry
    limits (-180.0 0.0)
 end
  begin
     id 21 
     name lhand
     direction 1 -4.48798e-011 3.46119e-026   
     length 0.519693   
     axis -2.21073e-014 90 90   XYZ
    dof rx rz
    limits (-90.0 90.0)
           (-45.0 45.0)
  end
  begin
     id 22 
     name lfingers
     direction 1 -4.48938e-011 6.92797e-026   
     length 0.41899   
     axis -4.42155e-014 90 90   XYZ
    dof rx
    limits (0.0 90.0)
  end
  begin
     id 23
     name lthumb
     direction 0.707107 -6.34952e-011 0.707107   
     length 0.601588   
     axis -90 45 6.0103e-014   XYZ
    dof rx rz
    limits (-45.0 45.0)
           (-45.0 45.0)
  end
  begin
     id 24 
     name rclavicle
     direction -0.866736 0.456792 -0.200276   
     length 3.45032  
     axis 0 0 0   XYZ 
    dof ry rz
    limits (-10.0 20.0)
           (-20.0 0.0)
  end
  begin
     id 25 
     name rhumerus
     direction -1 -4.4897e-011 8.65094e-028  
     length 5.32214   
     axis 180 30 90   XYZ
    dof rx ry rz
    limits (-90.0 60.0)
           (-90.0 90.0)
           (-90.0 90.0)
  end
  begin
     id 26 
     name rradius
     direction -1 -4.48987e-011 1.08427e-026   
     length 3.51208   
     axis 180 30 90   XYZ
    dof rx
    limits (-10.0 170.0)
  end
  begin
     id 27 
     name rwrist
     direction -1 -4.48961e-011 1.73222e-026   
     length 1.75604   
     axis -9.60847e-015 -90 -90   XYZ
    dof ry
    limits (-180.0 0.0)
  end
  begin
     id 28
     name rhand
     direction -1 -4.48895e-011 3.46314e-026   
     length 0.586681   
     axis -2.21073e-014 -90 -90   XYZ
    dof rx rz
    limits (-90.0 90.0)
           (-45.0 45.0)
  end
  begin
     id 29
     name rfingers
     direction -1 -4.48968e-011 6.92916e-026   
     length 0.472997   
     axis -4.42155e-014 -90 -90   XYZ
    dof rx
    limits (0.0 90.0)
  end
  begin
     id 30
     name rthumb
     direction -0.707107 -6.34848e-011 0.707107   
     length 0.679133   
     axis -90 -45 -6.0103e-014   XYZ
    dof rx rz
    limits (-45.0 45.0)
           (-45.0 45.0)
  end
:hierarchy
  begin
    root lhipjoint rhipjoint lowerback
    lhipjoint lfemur
    lfemur ltibia
    ltibia lfoot
    lfoot ltoes
    rhipjoint rfemur
    rfemur rtibia
    rtibia rfoot
    rfoot rtoes
    lowerback upperback
    upperback thorax
    thorax lowerneck lclavicle rclavicle
    lowerneck upperneck
    upperneck head
    lclavicle lhumerus
    lhumerus lradius
    lradius lwrist
    lwrist lhand lthumb
    lhand lfingers
    rclavicle rhumerus
    rhumerus rradius
    rradius rwrist
    rwrist rhand rthumb
    rhand rfingers
  end

#!OML:ASF H:\Dans Jumps\Project 1\Capture day 1\Session 1\subject.ASF
:FULLY-SPECIFIED
:DEGREES
1
root 0.071877 17.5482 -13.3026 6.78165 -0.669831 -1.34431
lowerback -3.98826 -0.74603 0.251379
upperback 2.292 -1.08164 1.62227
thorax 4.63221 -0.556401 1.4502
lowerneck -11.9896 0.779928 -1.76871
upperneck 30.4581 1.39893 0.499233
head 11.946 0.480554 0.683018
rclavicle -9.19379e-015 5.56597e-015
rhumerus -26.7008 -27.2698 -74.2044
rradius 28.1202
rwrist 30.1532
rhand -18.7747 -25.9245
rfingers 7.12502
rthumb 7.52267 -55.7707
lclavicle -9.19379e-015 5.56597e-015
lhumerus -21.3165 4.50054 86.1503
lradius 21.0725
lwrist 0.994538
lhand -24.5479 -3.22394
lfingers 7.12502
lthumb 1.94821 26.7469
rfemur -11.2761 -3.59713 20.9321
rtibia 20.883
rfoot -15.2048 -2.26693
rtoes 11.193
lfemur -10.9366 7.89415 -18.9028
ltibia 19.2346
lfoot -11.7593 8.16109
ltoes -4.94581
2
root 0.0714839 17.5484 -13.3005 6.77098 -0.638183 -1.33986
lowerback -3.96465 -0.754124 0.245874
upperback 2.2844 -1.0917 1.62244
thorax 4.61123 -0.561521 1.45295
lowerneck -12.0106 0.780788 -1.76205
upperneck 30.5159 1.39409 0.516411
head 11.9733 0.480707 0.688274
rclavicle 4.17448e-015 -9.93923e-015
rhumerus -26.731 -27.5029 -74.1095
rradius 27.991
rwrist 30.3415
rhand -18.7707 -26.0867
rfingers 7.12502
rthumb 7.52648 -55.9328
lclavicle 4.17448e-015 -9.93923e-015
lhumerus -21.3136 4.62531 86.0287
lradius 20.9459
lwrist 0.895261
lhand -24.5956 -3.15175
lfingers 7.12502
lthumb 1.90215 26.8195
rfemur -11.2237 -3.58974 20.9288
rtibia 20.8318
rfoot -15.2587 -2.30736
rtoes 11.2112
lfemur -11.0095 7.94778 -18.9172
ltibia 19.3679
lfoot -11.7511 8.0999
ltoes -4.72134
3
root 0.0718357 17.5483 -13.2992 6.76368 -0.627487 -1.35559
lowerback -3.97385 -0.761424 0.254546
upperback 2.30571 -1.10318 1.63937
thorax 4.63915 -0.567349 1.46452
lowerneck -12.0496 0.785335 -1.75924
upperneck 30.5488 1.40709 0.497042
head 11.9947 0.483987 0.682856
rclavicle -9.69075e-015 3.18055e-015
rhumerus -26.7117 -27.5944 -74.0583
rradius 27.9186
rwrist 30.4165
rhand -18.7619 -26.0279
rfingers 7.12502
rthumb 7.53499 -55.8737
lclavicle -9.69075e-015 3.18055e-015
lhumerus -21.2252 4.86698 85.9146
lradius 20.7851
lwrist 0.704479
lhand -24.6191 -3.24682
lfingers 7.12502
lthumb 1.87948 26.7246
rfemur -11.1997 -3.57527 20.9434
rtibia 20.8111
rfoot -15.2539 -2.33295
rtoes 11.2181
lfemur -11.0721 7.96433 -18.9127
ltibia 19.4935
lfoot -11.7364 8.06928
ltoes -4.52884
4
root 0.0722467 17.5484 -13.2986 6.76727 -0.585741 -1.34379
lowerback -3.95035 -0.769661 0.243906
upperback 2.29275 -1.11314 1.64185
thorax 4.61281 -0.57259 1.47258
lowerneck -12.009 0.780265 -1.75875
upperneck 30.5605 1.39915 0.496025
head 11.991 0.48038 0.681108
rclavicle -4.67144e-015 -1.98785e-016
rhumerus -26.7697 -27.7165 -73.9702
rradius 27.8439
rwrist 30.5044
rhand -18.8227 -25.966
rfingers 7.12502
rthumb 7.47627 -55.8139
lclavicle -4.67144e-015 -1.98785e-016
lhumerus -21.2469 5.029 85.8037
lradius 20.6973
lwrist 0.534952
lhand -24.6242 -3.26894
lfingers 7.12502
lthumb 1.87455 26.7026
rfemur -11.1864 -3.58688 20.9329
rtibia 20.795
rfoot -15.2426 -2.37387
rtoes 11.1517
lfemur -11.1524 7.96233 -18.9378
ltibia 19.6164
lfoot -11.7143 7.99515
ltoes -4.39626
5
root 0.0726388 17.5477 -13.2978 6.76363 -0.553608 -1.34507
lowerback -3.93668 -0.778167 0.244037
upperback 2.29457 -1.12471 1.64979
thorax 4.60739 -0.578466 1.47998
lowerneck -12.0138 0.779195 -1.7549
upperneck 30.5873 1.39874 0.490331
head 12.0029 0.479667 0.678506
rclavicle -7.45443e-016 1.86858e-014
rhumerus -26.7955 -27.8508 -73.8927
rradius 27.7584
rwrist 30.6148
rhand -18.8596 -25.9301
rfingers 7.12502
rthumb 7.44071 -55.7792
lclavicle -7.45443e-016 1.86858e-014
lhumerus -21.2291 5.21239 85.6928
lradius 20.5918
lwrist 0.3833
lhand -24.6184 -3.26991
lfingers 7.12502
lthumb 1.88008 26.7016
rfemur -11.1729 -3.59327 20.9348
rtibia 20.792
rfoot -15.2569 -2.40707
rtoes 11.1097
lfemur -11.2191 7.95973 -18.9485
ltibia 19.7382
lfoot -11.6942 7.9559
ltoes -4.27545
6
root 0.0731506 17.5467 -13.2974 6.76046 -0.519871 -1.34946
lowerback -3.92379 -0.786517 0.247146
upperback 2.29887 -1.13637 1.65933
thorax 4.605 -0.584333 1.48732
lowerneck -12.0226 0.776927 -1.74999
upperneck 30.6126 1.39746 0.481302
head 12.015 0.478283 0.674373
rclavicle 4.02539e-015 4.37326e-015
rhumerus -26.8203 -27.9805 -73.8159
rradius 27.6763
rwrist 30.7226
rhand -18.8909 -25.8953
rfingers 7.12502
rthumb 7.41044 -55.7455
lclavicle 4.02539e-015 4.37326e-015
lhumerus -21.2095 5.39158 85.5881
lradius 20.5048
lwrist 0.268994
lhand -24.5655 -3.19857
lfingers 7.12502
lthumb 1.93117 26.7724
rfemur -11.1674 -3.60358 20.9401
rtibia 20.8016
rfoot -15.2746 -2.43901
rtoes 11.0608
lfemur -11.2806 7.94363 -18.9557
ltibia 19.8522
lfoot -11.672 7.93105
ltoes -4.19223
7
root 0.0737241 17.5455 -13.2972 6.75663 -0.48474 -1.3579
lowerback -3.90793 -0.794646 0.253917
upperback 2.30312 -1.14797 1.67038
thorax 4.60082 -0.590081 1.49422
lowerneck -12.033 0.773494 -1.74832
upperneck 30.64 1.39425 0.47588
head 12.0283 0.476096 0.671917
rclavicle -5.26779e-015 6.36111e-015
rhumerus -26.8489 -28.1075 -73.7372
rradius 27.596
rwrist 30.8287
rhand -18.9103 -25.8824
rfingers 7.12502
rthumb 7.39173 -55.7333
lclavicle -5.26779e-015 6.36111e-015
lhumerus -21.1938 5.5553 85.4909
lradius 20.4357
lwrist 0.196093
lhand -24.484 -3.05882
lfingers 7.12502
lthumb 2.00991 26.9115
rfemur -11.1619 -3.61649 20.9499
rtibia 20.8102
rfoot -15.2874 -2.46898
rtoes 11.0155
lfemur -11.3421 7.91961 -18.9575
ltibia 19.968
lfoot -11.6544 7.91952
ltoes -4.13448
8
root 0.074356 17.5444 -13.2971 6.75087 -0.4496 -1.37197
lowerback -3.89103 -0.801904 0.266246
upperback 2.30938 -1.15881 1.68276
thorax 4.59805 -0.595309 1.49945
lowerneck -12.0494 0.768677 -1.74781
upperneck 30.6729 1.38879 0.472804
head 12.045 0.473001 0.670327
rclavicle 2.03754e-015 7.95139e-016
rhumerus -26.8782 -28.2312 -73.6597
rradius 27.5194
rwrist 30.9306
rhand -18.9084 -25.9016
rfingers 7.12502
rthumb 7.39354 -55.7524
lclavicle 2.03754e-015 7.95139e-016
lhumerus -21.1772 5.70009 85.4026
lradius 20.3756
lwrist 0.143236
lhand -24.3998 -2.87892
lfingers 7.12502
lthumb 2.09125 27.0906
rfemur -11.1527 -3.62973 20.9658
rtibia 20.8136
rfoot -15.2914 -2.49742
rtoes 10.9772
lfemur -11.4018 7.89136 -18.9515
ltibia 20.0831
lfoot -11.6424 7.91715
ltoes -4.09497
9
root 0.075011 17.5435 -13.2973 6.74567 -0.41556 -1.39125
lowerback -3.87391 -0.807656 0.283735
upperback 2.3151 -1.16794 1.69559
thorax 4.59445 -0.599532 1.50238
lowerneck -12.0663 0.762321 -1.74934
upperneck 30.7141 1.38032 0.474161
head 12.0652 0.468806 0.670414
rclavicle -1.83876e-015 1.98785e-015
rhumerus -26.9104 -28.3584 -73.5804
rradius 27.441
rwrist 31.0345
rhand -18.8989 -25.9325
rfingers 7.12502
rthumb 7.40274 -55.783
lclavicle -1.83876e-015 1.98785e-015
lhumerus -21.1641 5.82535 85.3214
lradius 20.3201
lwrist 0.096052
lhand -24.3378 -2.71691
lfingers 7.12502
lthumb 2.15114 27.252
rfemur -11.1414 -3.64252 20.9875
rtibia 20.8087
rfoot -15.286 -2.52416
rtoes 10.9456
lfemur -11.4609 7.86491 -18.9381
ltibia 20.1959
lfoot -11.638 7.91746
ltoes -4.07673
10
root 0.0757725 17.5431 -13.2975 6.7405 -0.384203 -1.41234
lowerback -3.85812 -0.811117 0.304698
upperback 2.32135 -1.17416 1.70684
thorax 4.59198 -0.602179 1.50195
lowerneck -12.0857 0.754399 -1.74992
upperneck 30.7628 1.36849 0.478637
head 12.0889 0.463539 0.671129
rclavicle 8.44835e-016 7.55382e-015
rhumerus -26.9459 -28.4783 -73.5038
rradius 27.3657
rwrist 31.1282
rhand -18.8876 -25.967
rfingers 7.12502
rthumb 7.41363 -55.8171
lclavicle 8.44835e-016 7.55382e-015
lhumerus -21.1529 5.93037 85.2475
lradius 20.2633
lwrist 0.0368228
lhand -24.3058 -2.57443
lfingers 7.12502
lthumb 2.18198 27.3942
rfemur -11.1263 -3.65496 21.0104
rtibia 20.7954
rfoot -15.2686 -2.54704
rtoes 10.923
lfemur -11.5197 7.84437 -18.9209
ltibia 20.3034
lfoot -11.6408 7.90924
ltoes -4.05548
11
root 0.0766171 17.5427 -13.2979 6.73705 -0.356081 -1.4351
lowerback -3.84463 -0.812708 0.328482
upperback 2.32703 -1.17801 1.71672
thorax 4.59007 -0.603531 1.49868
lowerneck -12.1063 0.745779 -1.75118
upperneck 30.82 1.35444 0.487777
head 12.1163 0.457714 0.673485
rclavicle -3.67752e-015 -1.15295e-014
rhumerus -26.9823 -28.5996 -73.4277
rradius 27.285
rwrist 31.2269
rhand -18.8753 -25.9947
rfingers 7.12502
rthumb 7.42555 -55.8444
lclavicle -3.67752e-015 -1.15295e-014
lhumerus -21.1441 6.0178 85.1792
lradius 20.2008
lwrist -0.0417556
lhand -24.3209 -2.49439
lfingers 7.12502
lthumb 2.16747 27.4743
rfemur -11.1117 -3.66854 21.0347
rtibia 20.777
rfoot -15.2481 -2.56523
rtoes 10.8987
lfemur -11.5749 7.82769 -18.9001
ltibia 20.4021
lfoot -11.6508 7.89484
ltoes -4.04912
12
root 0.0775683 17.5424 -13.2985 6.73617 -0.332495 -1.45535
lowerback -3.83315 -0.811832 0.350119
upperback 2.33278 -1.17837 1.72474
thorax 4.58929 -0.603192 1.49493
lowerneck -12.1314 0.736384 -1.7512
upperneck 30.8828 1.33866 0.498327
head 12.147 0.451388 0.676005
rclavicle 1.04859e-014 -7.95139e-016
rhumerus -27.0181 -28.7246 -73.3505
rradius 27.1993
rwrist 31.331
rhand -18.8689 -26.0024
rfingers 7.12502
rthumb 7.4317 -55.8519
lclavicle 1.04859e-014 -7.95139e-016
lhumerus -21.1347 6.09504 85.1169
lradius 20.1442
lwrist -0.113939
lhand -24.3379 -2.43356
lfingers 7.12502
lthumb 2.15104 27.5353
rfemur -11.1001 -3.68349 21.0554
rtibia 20.7571
rfoot -15.236 -2.57608
rtoes 10.8893
lfemur -11.6256 7.81503 -18.8814
ltibia 20.4885
lfoot -11.6646 7.8739
ltoes -4.04981
13
root 0.0786065 17.5422 -13.2992 6.73631 -0.313891 -1.47457
lowerback -3.82329 -0.809473 0.370354
upperback 2.3398 -1.17669 1.73202
thorax 4.59071 -0.601873 1.49134
lowerneck -12.1605 0.727514 -1.7527
upperneck 30.9492 1.32333 0.511392
head 12.18 0.445374 0.679847
rclavicle 9.74045e-015 -1.59028e-015
rhumerus -27.0565 -28.8203 -73.2826
rradius 27.1268
rwrist 31.411
rhand -18.8653 -26.0003
rfingers 7.12502
rthumb 7.43516 -55.8496
lclavicle 9.74045e-015 -1.59028e-015
lhumerus -21.1252 6.16846 85.0599
lradius 20.0957
lwrist -0.177282
lhand -24.3637 -2.41146
lfingers 7.12502
lthumb 2.12606 27.5577
rfemur -11.0921 -3.6984 21.0742
rtibia 20.7404
rfoot -15.2344 -2.58069
rtoes 10.8889
lfemur -11.6691 7.80474 -18.863
ltibia 20.5602
lfoot -11.6802 7.84859
ltoes -4.0498
